<?xml version="1.0" encoding="UTF-8" standalone="no"?>
<!DOCTYPE svg PUBLIC "-//W3C//DTD SVG 1.1//EN"
 "http://www.w3.org/Graphics/SVG/1.1/DTD/svg11.dtd">
<!-- Generated by graphviz version 10.0.1 (20240210.2158)
 -->
<!-- Title: G Pages: 1 -->
<svg width="285pt" height="98pt"
 viewBox="0.00 0.00 285.25 98.00" xmlns="http://www.w3.org/2000/svg" xmlns:xlink="http://www.w3.org/1999/xlink">
<g id="graph0" class="graph" transform="scale(1 1) rotate(0) translate(4 94)">
<title>G</title>
<polygon fill="white" stroke="none" points="-4,4 -4,-94 281.25,-94 281.25,4 -4,4"/>
<!-- tabla1 -->
<g id="node1" class="node">
<title>tabla1</title>
<polygon fill="darkgreen" stroke="none" points="8,-45 8,-66 146,-66 146,-45 8,-45"/>
<polygon fill="none" stroke="black" points="8,-45 8,-66 146,-66 146,-45 8,-45"/>
<text text-anchor="start" x="11" y="-49.7" font-family="Times New Roman,serif" font-size="14.00" fill="white">The amazing spiderman</text>
<polygon fill="none" stroke="black" points="8,-24 8,-45 70,-45 70,-24 8,-24"/>
<text text-anchor="start" x="25.5" y="-28.7" font-family="Times New Roman,serif" font-size="14.00">2014</text>
<polygon fill="none" stroke="black" points="70,-24 70,-45 146,-45 146,-24 70,-24"/>
<text text-anchor="start" x="87.75" y="-28.7" font-family="Times New Roman,serif" font-size="14.00">Accion</text>
</g>
<!-- andrew -->
<g id="node2" class="node">
<title>andrew</title>
<polygon fill="darkmagenta" stroke="black" points="263.75,-90 203.5,-90 203.5,-54 263.75,-54 263.75,-90"/>
<text text-anchor="middle" x="233.62" y="-66.58" font-family="Times New Roman,serif" font-size="14.00" fill="white">Andrew</text>
</g>
<!-- tabla1&#45;&gt;andrew -->
<g id="edge1" class="edge">
<title>tabla1&#45;&gt;andrew</title>
<path fill="none" stroke="black" d="M153.95,-58.26C167.13,-60.56 180.36,-62.87 192.1,-64.92"/>
<polygon fill="black" stroke="black" points="191.36,-68.35 201.81,-66.62 192.56,-61.45 191.36,-68.35"/>
</g>
<!-- emma_stone -->
<g id="node3" class="node">
<title>emma_stone</title>
<polygon fill="darkmagenta" stroke="black" points="277.25,-36 190,-36 190,0 277.25,0 277.25,-36"/>
<text text-anchor="middle" x="233.62" y="-12.57" font-family="Times New Roman,serif" font-size="14.00" fill="white">Emma Stone</text>
</g>
<!-- tabla1&#45;&gt;emma_stone -->
<g id="edge2" class="edge">
<title>tabla1&#45;&gt;emma_stone</title>
<path fill="none" stroke="black" d="M153.95,-31.74C162.16,-30.3 170.39,-28.87 178.28,-27.49"/>
<polygon fill="black" stroke="black" points="178.79,-30.95 188.04,-25.79 177.58,-24.06 178.79,-30.95"/>
</g>
</g>
</svg>
